<svg width="791" height="1144" viewBox="0 0 791 1144" fill="none" xmlns="http://www.w3.org/2000/svg">
<path d="M118.543 515.656C118.543 597.058 170.39 666.351 242.863 692.312" stroke="#BABECB" stroke-width="1.69325" stroke-linecap="round"/>
<path d="M131.384 541.36C118.667 598.69 144.49 655.62 191.66 685.267" stroke="#BABECB" stroke-width="0.891187" stroke-linecap="round"/>
<path d="M122.671 642.047L112.849 648.301L102.471 643.004L101.917 631.453L111.736 625.198L122.112 630.499L122.671 642.047Z" fill="#465173"/>
<path d="M142.594 661.195L146.484 672.449L157.845 668.596L153.954 657.342L142.594 661.195Z" fill="#BABECB"/>
<path d="M307.014 913.643C315.431 907.856 338.905 908.146 345.151 917.681C347.279 911.726 361.963 898.754 376.01 898.754C403.254 898.754 405.276 911.726 406.34 917.681C422.835 913.643 447.844 923.23 447.844 956.221C454.406 956.93 467.531 961.116 467.531 972.183V1004.15H345.151H211.672C205.096 982.053 219.452 971.708 227.452 969.297C227.452 947.467 250.904 948.085 262.631 951.122C261.973 947.177 263.025 938.629 272.494 935.999C281.962 933.369 292.439 937.095 296.494 939.287C296.494 933.15 298.598 919.429 307.014 913.643Z" fill="white" stroke="black" stroke-width="2.38043" stroke-linecap="round" stroke-linejoin="round"/>
<path d="M359.997 937.371C396.364 932.337 450.761 967.014 449.962 1003.6C370.96 1014.71 321.634 957.919 306.84 928.126C306.839 928.123 306.837 928.12 306.836 928.117C306.837 928.12 306.839 928.123 306.84 928.126C309.42 933.31 323.65 942.403 359.997 937.371Z" fill="#465173"/>
<path d="M449.962 1003.6C450.761 967.014 396.364 932.337 359.997 937.371C323.629 942.406 309.403 933.3 306.836 928.117C321.624 957.908 370.953 1014.71 449.962 1003.6Z" stroke="black" stroke-width="1.87115" stroke-linecap="round" stroke-linejoin="round"/>
<path d="M378.973 964.32C398.293 969.331 439.351 982.406 449.014 994.627" stroke="black" stroke-width="1.87115" stroke-linecap="round" stroke-linejoin="round"/>
<path d="M290.202 992.948C281.785 998.998 286.695 1005.22 290.202 1009.39H389.49C394.75 985.189 378.092 976.729 369.106 975.524C364.898 961.584 348.942 964.236 341.49 967.304C333.862 957.047 323.626 963.03 319.462 967.304C309.205 960.729 303.133 970.044 301.38 975.524C291.648 975.524 289.873 987.14 290.202 992.948Z" fill="#BABECB" stroke="black" stroke-width="1.87115" stroke-linecap="round" stroke-linejoin="round"/>
<path d="M304.056 1012.84C328.433 1012.84 349.363 1012.27 358.393 1011.98C361.05 1011.89 363.145 1009.71 363.145 1007.05L363.145 874.005C363.145 871.272 360.929 869.057 358.196 869.057L249.915 869.057C247.182 869.057 244.967 871.272 244.967 874.005L244.967 1007.05C244.967 1009.71 247.062 1011.89 249.718 1011.98C258.748 1012.27 279.678 1012.84 304.056 1012.84Z" fill="#465173" stroke="black" stroke-width="1.68035" stroke-linejoin="round"/>
<g opacity="0.8">
<path d="M352.578 869.066V1007.93" stroke="white" stroke-width="0.391549" stroke-linejoin="round"/>
<path d="M336.336 869.066V1007.93" stroke="white" stroke-width="0.391549" stroke-linejoin="round"/>
<path d="M320.09 869.066V1007.93" stroke="white" stroke-width="0.391549" stroke-linejoin="round"/>
<path d="M303.848 869.066V1007.93" stroke="white" stroke-width="0.391549" stroke-linejoin="round"/>
<path d="M287.602 869.066V1007.93" stroke="white" stroke-width="0.391549" stroke-linejoin="round"/>
<path d="M271.359 869.066V1007.93" stroke="white" stroke-width="0.391549" stroke-linejoin="round"/>
<path d="M255.113 869.066V1007.93" stroke="white" stroke-width="0.391549" stroke-linejoin="round"/>
</g>
<path opacity="0.8" d="M363.145 882.848H244.967" stroke="white" stroke-width="0.391549" stroke-linejoin="round"/>
<path opacity="0.8" d="M363.145 865.125H244.967" stroke="white" stroke-width="0.391549" stroke-linejoin="round"/>
<path opacity="0.8" d="M363.145 845.422H244.967" stroke="white" stroke-width="0.391549" stroke-linejoin="round"/>
<path opacity="0.8" d="M363.145 901.555H244.967" stroke="white" stroke-width="0.391549" stroke-linejoin="round"/>
<path opacity="0.8" d="M363.145 922.242H244.967" stroke="white" stroke-width="0.391549" stroke-linejoin="round"/>
<path opacity="0.8" d="M363.145 942.918H244.967" stroke="white" stroke-width="0.391549" stroke-linejoin="round"/>
<path opacity="0.8" d="M363.145 961.629H244.967" stroke="white" stroke-width="0.391549" stroke-linejoin="round"/>
<path opacity="0.8" d="M363.145 980.344H244.967" stroke="white" stroke-width="0.391549" stroke-linejoin="round"/>
<path opacity="0.8" d="M363.148 999.051H244.971" stroke="white" stroke-width="0.391549" stroke-linejoin="round"/>
<path d="M634.935 1004.02C659.312 1004.02 680.242 1003.44 689.272 1003.15C691.929 1003.07 694.023 1000.89 694.023 998.228L694.023 865.181C694.023 862.448 691.808 860.233 689.075 860.233L580.794 860.233C578.061 860.233 575.846 862.448 575.846 865.181L575.846 998.228C575.846 1000.89 577.94 1003.07 580.597 1003.15C589.627 1003.44 610.557 1004.02 634.935 1004.02Z" fill="#465173" stroke="black" stroke-width="1.68035" stroke-linejoin="round"/>
<g opacity="0.8">
<path d="M683.461 860.234V999.093" stroke="white" stroke-width="0.391549" stroke-linejoin="round"/>
<path d="M667.219 860.234V999.093" stroke="white" stroke-width="0.391549" stroke-linejoin="round"/>
<path d="M650.973 860.234V999.093" stroke="white" stroke-width="0.391549" stroke-linejoin="round"/>
<path d="M634.73 860.234V999.093" stroke="white" stroke-width="0.391549" stroke-linejoin="round"/>
<path d="M618.484 860.234V999.093" stroke="white" stroke-width="0.391549" stroke-linejoin="round"/>
<path d="M602.242 860.234V999.093" stroke="white" stroke-width="0.391549" stroke-linejoin="round"/>
<path d="M585.996 860.234V999.093" stroke="white" stroke-width="0.391549" stroke-linejoin="round"/>
</g>
<path opacity="0.8" d="M694.023 874.023H575.846" stroke="white" stroke-width="0.391549" stroke-linejoin="round"/>
<path opacity="0.8" d="M694.023 856.301H575.846" stroke="white" stroke-width="0.391549" stroke-linejoin="round"/>
<path opacity="0.8" d="M694.023 836.598H575.846" stroke="white" stroke-width="0.391549" stroke-linejoin="round"/>
<path opacity="0.8" d="M694.023 892.73H575.846" stroke="white" stroke-width="0.391549" stroke-linejoin="round"/>
<path opacity="0.8" d="M694.023 913.418H575.846" stroke="white" stroke-width="0.391549" stroke-linejoin="round"/>
<path opacity="0.8" d="M694.023 934.094H575.846" stroke="white" stroke-width="0.391549" stroke-linejoin="round"/>
<path opacity="0.8" d="M694.023 952.805H575.846" stroke="white" stroke-width="0.391549" stroke-linejoin="round"/>
<path opacity="0.8" d="M694.023 971.52H575.846" stroke="white" stroke-width="0.391549" stroke-linejoin="round"/>
<path opacity="0.8" d="M694.023 990.227H575.846" stroke="white" stroke-width="0.391549" stroke-linejoin="round"/>
<path d="M467.133 1013.2C444.657 1013.2 425.34 1012.17 416.88 1011.64C414.298 1011.47 412.316 1009.33 412.316 1006.74L412.316 761.295C412.316 758.563 414.532 756.347 417.265 756.347L517.002 756.347C519.735 756.347 521.95 758.563 521.95 761.295L521.95 1006.74C521.95 1009.33 519.968 1011.47 517.386 1011.64C508.926 1012.17 489.61 1013.2 467.133 1013.2Z" fill="#465173" stroke="black" stroke-width="1.68035" stroke-linejoin="round"/>
<g opacity="0.8">
<path d="M511.688 756.711V1013.33" stroke="white" stroke-width="0.391549" stroke-linejoin="round"/>
<path d="M496.703 756.711V1013.33" stroke="white" stroke-width="0.391549" stroke-linejoin="round"/>
<path d="M481.719 756.711V1013.33" stroke="white" stroke-width="0.391549" stroke-linejoin="round"/>
<path d="M466.734 756.711V1013.33" stroke="white" stroke-width="0.391549" stroke-linejoin="round"/>
<path d="M451.75 756.711V1013.33" stroke="white" stroke-width="0.391549" stroke-linejoin="round"/>
<path d="M436.762 756.711V1013.33" stroke="white" stroke-width="0.391549" stroke-linejoin="round"/>
<path d="M421.781 756.711V1013.33" stroke="white" stroke-width="0.391549" stroke-linejoin="round"/>
</g>
<path opacity="0.8" d="M521.055 809.164H412.413" stroke="white" stroke-width="0.391549" stroke-linejoin="round"/>
<path opacity="0.8" d="M521.055 791.586H412.413" stroke="white" stroke-width="0.391549" stroke-linejoin="round"/>
<path opacity="0.8" d="M521.055 771.234H412.413" stroke="white" stroke-width="0.391549" stroke-linejoin="round"/>
<path opacity="0.8" d="M521.055 827.891H412.413" stroke="white" stroke-width="0.391549" stroke-linejoin="round"/>
<path opacity="0.8" d="M521.055 848.492H412.413" stroke="white" stroke-width="0.391549" stroke-linejoin="round"/>
<path opacity="0.8" d="M521.055 869.098H412.413" stroke="white" stroke-width="0.391549" stroke-linejoin="round"/>
<path opacity="0.8" d="M521.055 887.824H412.413" stroke="white" stroke-width="0.391549" stroke-linejoin="round"/>
<path opacity="0.8" d="M521.055 906.555H412.413" stroke="white" stroke-width="0.391549" stroke-linejoin="round"/>
<path opacity="0.8" d="M521.055 925.289H412.413" stroke="white" stroke-width="0.391549" stroke-linejoin="round"/>
<path opacity="0.8" d="M412.414 962.754L521.056 962.754" stroke="white" stroke-width="0.391549" stroke-linejoin="round"/>
<path opacity="0.8" d="M412.414 944.023L521.056 944.023" stroke="white" stroke-width="0.391549" stroke-linejoin="round"/>
<path opacity="0.8" d="M521.055 977.734C521.055 977.734 508.879 979.608 466.734 979.608C424.588 979.608 412.413 977.734 412.413 977.734" stroke="white" stroke-width="0.391549" stroke-linejoin="round"/>
<path opacity="0.8" d="M521.055 992.723C521.055 992.723 508.879 994.596 466.734 994.596C424.588 994.596 412.413 992.723 412.413 992.723" stroke="white" stroke-width="0.391549" stroke-linejoin="round"/>
<path d="M466.745 732.164H622.735C625.468 732.164 627.672 734.379 627.672 737.112V766.787C627.672 769.52 625.468 771.735 622.735 771.735L466.745 771.735L310.751 771.735C308.018 771.735 305.819 770.131 305.819 767.398V737.096C305.819 734.364 308.023 732.164 310.755 732.164H466.745Z" fill="#465173" stroke="black" stroke-width="1.68035" stroke-linejoin="round"/>
<path opacity="0.8" d="M627.82 746.234C627.82 746.234 555.698 746.234 466.731 746.234C377.764 746.234 305.642 746.234 305.642 746.234" stroke="white" stroke-width="0.783097" stroke-linejoin="round"/>
<path opacity="0.8" d="M620.328 733.723V772.122" stroke="white" stroke-width="0.783097" stroke-linejoin="round"/>
<path opacity="0.8" d="M605.34 734.555V772.954" stroke="white" stroke-width="0.783097" stroke-linejoin="round"/>
<path opacity="0.8" d="M590.355 734.555V772.954" stroke="white" stroke-width="0.783097" stroke-linejoin="round"/>
<path opacity="0.8" d="M575.367 732.68V771.079" stroke="white" stroke-width="0.783097" stroke-linejoin="round"/>
<path opacity="0.8" d="M560.383 732.68V771.079" stroke="white" stroke-width="0.783097" stroke-linejoin="round"/>
<path opacity="0.8" d="M545.398 732.68V771.079" stroke="white" stroke-width="0.783097" stroke-linejoin="round"/>
<path opacity="0.8" d="M530.414 732.68V771.079" stroke="white" stroke-width="0.783097" stroke-linejoin="round"/>
<path opacity="0.8" d="M515.434 732.68V771.079" stroke="white" stroke-width="0.783097" stroke-linejoin="round"/>
<path opacity="0.8" d="M500.445 732.68V771.079" stroke="white" stroke-width="0.783097" stroke-linejoin="round"/>
<path opacity="0.8" d="M485.461 732.68V771.079" stroke="white" stroke-width="0.783097" stroke-linejoin="round"/>
<path opacity="0.8" d="M470.477 732.68V771.079" stroke="white" stroke-width="0.783097" stroke-linejoin="round"/>
<path opacity="0.8" d="M455.492 732.68V771.079" stroke="white" stroke-width="0.783097" stroke-linejoin="round"/>
<path opacity="0.8" d="M440.508 732.68V771.079" stroke="white" stroke-width="0.783097" stroke-linejoin="round"/>
<path opacity="0.8" d="M425.52 732.68V771.079" stroke="white" stroke-width="0.783097" stroke-linejoin="round"/>
<path opacity="0.8" d="M410.539 732.68V771.079" stroke="white" stroke-width="0.783097" stroke-linejoin="round"/>
<path opacity="0.8" d="M395.555 732.68V771.079" stroke="white" stroke-width="0.783097" stroke-linejoin="round"/>
<path opacity="0.8" d="M380.57 732.68V771.079" stroke="white" stroke-width="0.783097" stroke-linejoin="round"/>
<path opacity="0.8" d="M365.586 732.68V771.079" stroke="white" stroke-width="0.783097" stroke-linejoin="round"/>
<path opacity="0.8" d="M350.594 732.68V771.079" stroke="white" stroke-width="0.783097" stroke-linejoin="round"/>
<path opacity="0.8" d="M335.613 732.68V771.079" stroke="white" stroke-width="0.783097" stroke-linejoin="round"/>
<path opacity="0.8" d="M320.629 734.555V772.954" stroke="white" stroke-width="0.783097" stroke-linejoin="round"/>
<path d="M361.978 889.031L263.514 871.008C262.335 870.792 262.492 869.055 263.692 869.055H362.156C362.7 869.055 363.141 869.496 363.141 870.039V888.062C363.141 888.677 362.583 889.141 361.978 889.031Z" fill="black" stroke="black" stroke-width="1.87115" stroke-linecap="round" stroke-linejoin="round"/>
<path d="M304.291 398.492H19.5387C17.8011 398.492 16.3926 399.901 16.3926 401.638V584.02C16.3926 585.758 17.8011 587.166 19.5387 587.166H218.174C219.403 587.166 220.584 587.64 221.472 588.49L242.274 608.392C243.696 609.753 246.005 609.488 247.082 607.841L259.193 589.326C260.075 587.978 261.576 587.166 263.186 587.166H304.291C306.029 587.166 307.437 585.758 307.437 584.02V563.685V401.638C307.437 399.901 306.029 398.492 304.291 398.492Z" fill="#E9EAEE" stroke="black" stroke-width="1.62524"/>
<mask id="mask0_2705_15281" style="mask-type:alpha" maskUnits="userSpaceOnUse" x="28" y="346" width="241" height="267">
<path d="M28.5156 350.125C28.5156 348.08 30.1735 346.422 32.2186 346.422H264.313C266.359 346.422 268.016 348.08 268.016 350.125V582.292C268.016 584.337 266.359 585.995 264.313 585.995H252.661C251.152 585.995 249.794 586.911 249.228 588.311L240.359 610.258C239.258 612.981 235.578 613.4 233.893 610.995L217.487 587.574C216.794 586.584 215.662 585.995 214.454 585.995H32.2186C30.1735 585.995 28.5156 584.337 28.5156 582.292V555.411V350.125Z" fill="#D9D9D9"/>
</mask>
<g mask="url(#mask0_2705_15281)">
<path d="M99.895 593.077C100.019 592.994 100.161 592.943 100.309 592.928L154.87 587.451C155.37 587.401 155.815 587.765 155.866 588.264C158.029 609.717 156.466 640.054 154.372 664.978C153.324 677.45 152.141 688.585 151.22 696.603C150.76 700.611 150.365 703.841 150.085 706.069C149.946 707.183 149.834 708.047 149.758 708.632C149.72 708.925 149.691 709.148 149.671 709.298L149.648 709.468L149.642 709.511L149.642 709.513L149.641 709.522L149.634 709.586L149.608 709.838C149.585 710.061 149.55 710.392 149.505 710.823C149.414 711.687 149.282 712.954 149.116 714.569C148.782 717.799 148.309 722.42 147.752 727.981C146.638 739.105 145.187 753.994 143.842 769.052C142.496 784.112 141.256 799.335 140.561 811.132C140.213 817.032 140.003 822.062 139.984 825.782C139.974 827.644 140.012 829.16 140.102 830.286C140.147 830.85 140.204 831.299 140.27 831.636C140.302 831.804 140.335 831.933 140.366 832.029C140.381 832.077 140.395 832.112 140.405 832.137C140.416 832.161 140.421 832.171 140.421 832.171L140.421 832.171C140.603 832.467 140.599 832.841 140.412 833.134C140.225 833.427 139.888 833.588 139.542 833.549L125.354 831.925L119.298 833.524C119.237 833.54 119.175 833.55 119.113 833.553L84.3643 835.369C84.0919 835.383 83.8275 835.275 83.644 835.073C83.4605 834.871 83.3773 834.598 83.4173 834.328C96.1965 748.068 92.3585 702.86 89.609 670.474C88.9055 662.188 88.2733 654.741 88.0089 647.66C78.7766 616.695 91.8952 598.417 99.895 593.077Z" fill="#BABECB" stroke="black" stroke-width="1.81871" stroke-linecap="round" stroke-linejoin="round"/>
<mask id="mask1_2705_15281" style="mask-type:alpha" maskUnits="userSpaceOnUse" x="83" y="588" width="73" height="247">
<path d="M88.4359 647.511C79.2466 616.838 92.2647 598.945 99.9225 593.833L154.484 588.355C158.791 631.079 149.219 709.405 149.219 709.405C149.219 709.405 136.775 827.168 140.125 832.645L124.81 831.002L140.315 662.661H139.358L134.093 704.821L118.588 832.645L83.8394 834.461C99.9225 725.901 89.7122 682.201 88.4359 647.511Z" fill="#ACC7FA"/>
</mask>
<g mask="url(#mask1_2705_15281)">
<path d="M125.478 584.527C116.863 633.345 125.478 688.385 106.812 810.909" stroke="white" stroke-width="3.82886"/>
<path d="M148.45 584.527C157.544 639.089 139.357 684.556 132.656 810.909" stroke="white" stroke-width="2.87164"/>
<path d="M110.162 584.527C86.71 627.123 114.469 666.369 91.4961 810.909" stroke="white" stroke-width="3.82886"/>
</g>
<path d="M120.98 610.262C119.066 619.025 111.791 634.91 98.0073 628.337" stroke="black" stroke-width="1.81871" stroke-linecap="round" stroke-linejoin="round"/>
<path d="M125.29 830.454L134.862 704.476L120.025 831.55L125.29 830.454Z" fill="black"/>
<path d="M139.648 608.074C143.477 654.632 134.862 704.476 134.862 704.476M134.862 704.476L125.29 830.454L120.025 831.55L134.862 704.476Z" stroke="black" stroke-width="1.81871" stroke-linecap="round" stroke-linejoin="round"/>
<path d="M127.523 472.515C158.154 475.387 169.321 467.57 177.776 464.379C180.457 476.631 188.784 490.543 192.613 495.967C180.744 500.179 155.122 498.679 143.795 497.403C163.705 530.714 169.959 570.63 170.597 591.688C155.761 586.424 128.959 589.295 118.908 594.081C110.867 597.91 91.9462 595.039 83.4908 593.124C92.6801 588.147 95.456 555.474 95.456 535.691C89.7127 532.341 75.3545 529.948 65.7824 527.555C71.9086 504.965 94.4988 477.62 105.028 466.772L127.523 472.515Z" fill="#465173"/>
<path d="M95.456 535.691C89.7127 532.341 75.3545 529.948 65.7824 527.555C71.9086 504.965 94.4988 477.62 105.028 466.772L127.523 472.515C158.154 475.387 169.321 467.57 177.776 464.379C180.457 476.631 188.784 490.543 192.613 495.967C180.744 500.179 155.122 498.679 143.795 497.403M95.456 535.691C95.456 555.474 92.6801 588.147 83.4908 593.124C91.9462 595.039 110.867 597.91 118.908 594.081C128.959 589.295 155.761 586.424 170.597 591.688C169.959 570.63 163.705 530.714 143.795 497.403M95.456 535.691L105.028 540.477C105.028 522.783 105.028 506.989 106.943 493.095M143.795 497.403C142.255 494.723 138.714 490.876 136.963 488.802" stroke="black" stroke-width="1.81871" stroke-linecap="round" stroke-linejoin="round"/>
<path d="M164.378 589.775C169.355 575.225 162.623 547.817 159.592 532.82C164.569 547.753 169.961 576.214 171.078 591.689L164.378 589.775Z" fill="black" stroke="black" stroke-width="1.81871" stroke-linecap="round" stroke-linejoin="round"/>
<path d="M193.572 495.49C195.487 495.107 195.723 488.63 194.926 484.961C193.011 485.44 189.661 485.918 187.268 486.397C188.704 489.747 191.658 495.873 193.572 495.49Z" fill="black" stroke="black" stroke-width="1.81871" stroke-linecap="round" stroke-linejoin="round"/>
<path d="M65.3011 528.118C75.3306 534.344 91.1459 548.126 104.547 541.459C92.119 536.567 66.8709 527.051 65.3011 528.118Z" fill="black" stroke="black" stroke-width="1.81871" stroke-linecap="round" stroke-linejoin="round"/>
<path d="M203.624 448.107C202.475 454.616 186.872 461.348 178.257 464.379C178.257 474.717 184.958 482.407 188.308 485.438C194.052 485.438 219.417 473.951 221.81 460.55C223.157 453.012 221.492 407.265 218.939 386.845C221.336 384.981 225.028 368.193 213.063 371.544C213.063 361.493 211.627 354.314 209.234 356.228C207.622 357.517 206.588 366.289 206.841 371.686C205.721 372.463 204.16 373.811 202.055 375.851C199.091 378.723 202.055 379.68 203.624 384.452C206.362 388.295 205.06 439.97 203.624 448.107Z" fill="#BF7657"/>
<path d="M178.257 464.379C186.872 461.348 202.475 454.616 203.624 448.107C205.06 439.97 206.362 388.295 203.624 384.452C202.055 379.68 199.091 378.723 202.055 375.851C210.452 367.715 210.191 370.586 207.798 376.808C209.035 374.865 210.67 369.15 206.841 371.686C206.588 366.289 207.622 357.517 209.234 356.228C211.627 354.314 213.063 361.493 213.063 371.544C225.028 368.193 221.336 384.981 218.939 386.845C221.492 407.265 223.157 453.012 221.81 460.55C219.417 473.951 194.052 485.438 188.308 485.438C184.958 482.407 178.257 474.717 178.257 464.379Z" stroke="black" stroke-width="1.81871" stroke-linejoin="round"/>
<path d="M136.091 564.143C123.286 547.732 151.974 505.547 167.919 486.505C170.778 483.008 182.15 489.889 185.313 490.641C188.476 491.393 196.531 489.132 202.066 490.448C207.6 491.764 204.703 496.923 216.375 500.534C225.712 503.422 221.146 509.743 217.696 512.543C176.05 538.727 174.567 560.694 176.96 573.138L136.091 564.143Z" fill="#E74F4F" stroke="black" stroke-width="1.43582" stroke-linecap="round" stroke-linejoin="round"/>
<path d="M198.765 511.386L173.049 503.6" stroke="black" stroke-width="1.62538" stroke-linecap="round" stroke-linejoin="round"/>
<path d="M192.925 518.351L167.209 510.565" stroke="black" stroke-width="1.62538" stroke-linecap="round" stroke-linejoin="round"/>
<path d="M176.125 573.344C189.076 575.087 191.282 565.811 190.766 560.954L144.909 550.05C145.302 556.826 139.002 562.011 135.802 563.756L176.125 573.344Z" fill="#BABECB" stroke="black" stroke-width="1.43582" stroke-linecap="round" stroke-linejoin="round"/>
<path d="M65.9979 583.313C83.2277 590.492 126.088 553.621 131.221 549.322C145.232 550.27 156.583 540.957 158.501 537.607C160.298 534.469 157.543 533.836 155.437 534.763C157.212 533.443 159.168 531.38 158.501 529.47C157.651 527.037 156.108 527.458 154.524 528.293C158.234 522.694 154.194 522.421 151.801 523.727C146.536 526.599 144.622 527.458 141.75 527.458C142.707 523.16 144.082 520.287 139.836 521.72C136.661 522.792 128.762 531.142 127.87 536.373C114.948 542.526 98.6766 553.414 93.8905 555.328C94.8477 553.414 99.6338 539.521 99.6338 539.521C99.6338 539.521 87.6686 530.641 73.7878 530.641C69.959 535.906 54.5113 577.091 65.9979 583.313Z" fill="#BF7657"/>
<path d="M93.8905 555.328C98.6766 553.414 114.948 542.526 127.87 536.373C128.762 531.142 136.661 522.792 139.836 521.72C144.082 520.287 142.707 523.16 141.75 527.458C144.622 527.458 146.536 526.599 151.801 523.727C154.194 522.421 158.234 522.694 154.524 528.293M93.8905 555.328C94.8477 553.414 99.6338 539.521 99.6338 539.521C99.6338 539.521 87.6686 530.641 73.7878 530.641C69.959 535.906 54.5113 577.091 65.9979 583.313C83.2277 590.492 126.088 553.621 131.221 549.322C145.232 550.27 156.583 540.957 158.501 537.607C160.694 533.777 156.108 533.678 154.194 535.594M93.8905 555.328L79.0537 562.986M154.524 528.293C156.108 527.458 157.651 527.037 158.501 529.47C159.333 531.853 156.081 534.475 154.194 535.594M154.524 528.293C151.322 531.287 145.806 533.439 141.75 533.68M154.194 535.594C152.306 536.714 146.695 539.521 143.664 539.521" stroke="black" stroke-width="1.81871" stroke-linecap="round" stroke-linejoin="round"/>
<path d="M211.918 377.061C212.494 378.773 216.351 377.895 218.943 376.871C221.535 375.846 221.727 374.611 221.303 373.35C220.879 372.089 219.998 371.279 217.407 372.303C214.815 373.328 211.342 375.348 211.918 377.061Z" fill="#BF7657" stroke="black" stroke-width="1.81871" stroke-linecap="round" stroke-linejoin="round"/>
<path d="M212.684 381.225C213.26 382.938 217.117 382.059 219.709 381.035C222.3 380.01 222.493 378.776 222.069 377.514C221.645 376.253 220.764 375.443 218.172 376.467C215.581 377.492 212.107 379.512 212.684 381.225Z" fill="#BF7657" stroke="black" stroke-width="1.81871" stroke-linecap="round" stroke-linejoin="round"/>
<path d="M153.969 442.683V405.83C153.969 405.83 150.14 386.675 126.688 386.196C103.236 385.718 100.843 404.862 100.843 404.862C100.843 414.029 103.746 419.177 107.339 421.967C103.38 419.586 97.3867 417.703 96.0573 424.018C94.5257 431.292 102.439 434.068 106.587 434.547C109.65 451.011 106.587 463.104 104.672 467.092C108.501 474.75 121.902 473.474 128.124 471.878V459.913C153.777 460.679 153.969 451.298 153.969 442.683Z" fill="#BF7657"/>
<path d="M153.969 405.83V442.683C153.969 451.298 153.777 460.679 128.124 459.913V471.878C121.902 473.474 108.501 474.75 104.672 467.092C106.587 463.104 109.65 451.011 106.587 434.547C102.439 434.068 94.5257 431.292 96.0573 424.018C97.5888 416.743 105.31 420.348 108.98 423.06C104.672 420.618 100.843 415.391 100.843 404.862C100.843 404.862 103.236 385.718 126.688 386.196C150.14 386.675 153.969 405.83 153.969 405.83Z" stroke="black" stroke-width="1.81871" stroke-linejoin="round"/>
<path d="M127.645 459.913C124.291 459.761 118.782 458.763 117.296 456.003C117.234 455.867 117.174 455.735 117.115 455.605C117.166 455.742 117.227 455.875 117.296 456.003C119.621 461.071 124.661 470.654 127.645 471.4V459.913Z" fill="black"/>
<path d="M127.645 459.913C124.135 459.753 118.264 458.669 117.115 455.605C119.349 460.551 124.581 470.634 127.645 471.4V459.913Z" stroke="black" stroke-width="1.81871" stroke-linecap="round" stroke-linejoin="round"/>
<path d="M162.102 396.728C159.868 390.027 149.658 388.432 141.043 389.549C130.514 379.498 97.0113 376.626 90.3108 406.3C84.9504 430.039 98.7662 443.95 107.062 448.896C107.062 448.896 107.479 448.602 107.541 448.417C108.306 446.12 107.222 437.888 106.583 434.059C98.9258 434.059 94.6183 426.401 97.9686 421.615C100.649 417.786 107.062 420.977 109.934 423.051C114.528 421.902 116.634 415.872 117.113 413C168.803 419.222 164.336 403.428 162.102 396.728Z" fill="black" stroke="black" stroke-width="1.81871" stroke-linecap="round" stroke-linejoin="round"/>
<circle cx="11.9652" cy="11.9652" r="11.9652" transform="matrix(-1 0 0 1 100.84 430.227)" fill="black"/>
<path d="M87.4414 435.016C83.1339 435.973 79.7837 438.366 80.7409 445.066" stroke="white" stroke-width="1.81871" stroke-linecap="round" stroke-linejoin="round"/>
<path d="M143.914 394.123C149.338 393.452 158.751 394.123 160.187 399.76C161.697 405.691 156.467 407.948 154.608 408.216" stroke="white" stroke-width="1.81871" stroke-linecap="round" stroke-linejoin="round"/>
<path d="M133.855 432.359C134.625 429.83 137.299 428.405 139.828 429.175C142.356 429.946 143.782 432.62 143.011 435.149C142.555 436.646 141.43 437.757 140.064 438.254" stroke="black" stroke-width="1.43582" stroke-linecap="round" stroke-linejoin="round"/>
<path d="M133.348 421.92C131.713 419.928 127.201 419.194 125.17 422.884" stroke="black" stroke-width="1.43582" stroke-linecap="round" stroke-linejoin="round"/>
<path d="M143.41 421.098C144.434 419.984 147.624 419.422 149.406 421.061" stroke="black" stroke-width="1.43582" stroke-linecap="round" stroke-linejoin="round"/>
<path d="M122.775 431.383C122.297 435.212 124.116 442.667 129.476 445.73C134.836 448.793 140.484 447.655 143.355 446.22" stroke="black" stroke-width="1.43582" stroke-linecap="round" stroke-linejoin="round"/>
<path d="M127.58 427.985C127.828 429.026 128.431 430.187 130.049 430.037C131.556 429.898 132.349 428.609 132.21 427.102" stroke="black" stroke-width="1.43582" stroke-linecap="round" stroke-linejoin="round"/>
<path d="M143.96 427.315C144.16 428.366 144.71 429.553 146.333 429.477C147.845 429.407 148.696 428.156 148.626 426.644" stroke="black" stroke-width="1.43582" stroke-linecap="round" stroke-linejoin="round"/>
<circle cx="136.488" cy="417.973" r="0.957214" fill="black"/>
</g>
<path d="M56.466 1032.92C62.9055 1032.92 73.8602 1022.63 81.2845 1013.52H104.83V1047.91C97.6177 1047.61 81.2846 1047.91 62.1936 1047.91C34.1864 1047.91 47.5568 1032.92 56.466 1032.92Z" fill="#465173" stroke="black" stroke-width="2.41842" stroke-linecap="round" stroke-linejoin="round"/>
<path d="M101.884 1034.17C109.055 1034.17 121.255 1024.71 129.523 1016.32H155.744L159.562 1047.96C151.531 1047.69 129.523 1047.96 108.263 1047.96C86.6856 1047.96 91.9626 1034.17 101.884 1034.17Z" fill="#465173" stroke="black" stroke-width="2.41842" stroke-linecap="round" stroke-linejoin="round"/>
<path d="M362.588 858.126C374.807 817.339 357.496 793.546 347.313 786.748L274.761 779.465C245.025 794.201 144.294 801.173 125.838 839.715C104.465 884.346 103.563 960.247 69.832 1011.4L103.563 1017.01L98.4712 1024.72L179.934 1032.43C182.874 950.141 190.667 892.749 212.391 885.965C255.032 872.651 347.313 893.674 362.588 858.126Z" fill="#BABECB" stroke="black" stroke-width="2.41842" stroke-linecap="round" stroke-linejoin="round"/>
<path d="M319.945 808.598C322.491 820.251 332.165 841.373 350.494 832.633" stroke="black" stroke-width="2.41842" stroke-linecap="round" stroke-linejoin="round"/>
<path d="M103.561 1017.01L96.5547 1015.62C96.5547 1015.62 121.421 965.149 127.109 910.489C134.729 868.533 145.19 858.729 155.68 853.758C155.725 853.736 155.748 853.726 155.748 853.726C155.725 853.737 155.703 853.747 155.68 853.758C154.293 854.433 132.041 866.144 127.109 925.205C122.017 986.172 103.561 1017.01 103.561 1017.01Z" fill="black"/>
<path d="M295.125 820.09C269.844 828.535 183.751 836.908 155.748 853.726M155.748 853.726C155.748 853.726 132.2 864.238 127.109 925.205C122.017 986.172 103.561 1017.01 103.561 1017.01L96.5547 1015.62C96.5547 1015.62 121.421 965.149 127.109 910.489C134.746 868.443 145.235 858.687 155.748 853.726Z" stroke="black" stroke-width="2.41842" stroke-linecap="round" stroke-linejoin="round"/>
<path d="M372.14 845.959L328.863 850.414L328.863 821.138L372.14 825.593L372.14 845.959Z" fill="white" stroke="black" stroke-width="1.90928" stroke-linecap="round" stroke-linejoin="round"/>
<path d="M329.497 852.961L322.192 850.549L322.192 829.447L315.496 829.447L315.496 822.814L322.192 822.814L329.497 818.594L329.497 852.961Z" fill="#E74F4F" stroke="black" stroke-width="1.90928" stroke-linecap="round" stroke-linejoin="round"/>
<path d="M307.847 626.724C291.936 632.452 269.661 658.545 256.296 670.637C252.732 686.93 265.206 683.775 260.115 690.988C275.898 696.589 275.601 660.242 290.663 658.545C264.188 702.84 255.872 755.918 255.023 783.921C274.753 776.92 310.392 780.739 323.757 787.103C334.449 792.195 359.609 788.376 370.853 785.83V706.899C378.49 702.444 379.126 701.822 391.855 698.64C383.709 668.601 359.397 635.634 346.032 620.996L307.847 626.724Z" fill="#465173" stroke="black" stroke-width="2.41842" stroke-linecap="round" stroke-linejoin="round"/>
<path d="M263.3 781.375C256.682 762.028 265.634 725.582 269.665 705.641C263.046 725.497 255.876 763.343 254.391 783.921L263.3 781.375Z" fill="black" stroke="black" stroke-width="2.41842" stroke-linecap="round" stroke-linejoin="round"/>
<path d="M332.668 717.08C328.213 715.807 317.648 713.262 311.029 713.262C304.411 713.262 295.119 715.807 291.3 717.08" stroke="black" stroke-width="1.90928" stroke-linecap="round" stroke-linejoin="round"/>
<path d="M350.034 811.649C352.879 803.475 389.035 735.656 353.114 682.832C342.215 661.087 347.306 636.267 351.125 626.721C364.489 647.722 434.496 713.911 367.153 810.868C368.85 819.545 372.589 835.757 367.153 835.886C365.182 835.933 364.592 835.173 364.53 834.199C363.884 835.62 362.697 836.862 360.771 836.95C358.821 837.039 358.45 835.589 358.486 834.123C357.794 835.98 356.099 837.097 354.306 836.95C351.13 836.689 354.306 826.34 351.13 820.117C349.893 822.382 346.462 826.175 342.636 823.226C338.81 820.277 345.974 814.28 350.034 811.649Z" fill="#FFCAA4"/>
<path d="M358.761 831.431C359.2 834.818 356.852 837.159 354.306 836.95C351.13 836.689 354.306 826.34 351.13 820.117C349.893 822.382 346.462 826.175 342.636 823.226C338.81 820.277 345.974 814.28 350.034 811.649C352.879 803.475 389.035 735.656 353.114 682.832C342.215 661.087 347.306 636.267 351.125 626.721C364.489 647.722 434.496 713.911 367.153 810.868C368.85 819.545 372.589 835.757 367.153 835.886C362.804 835.99 365.176 832.16 365.125 830.795M358.761 831.431C358.79 832.517 357.348 837.106 360.771 836.95C364.332 836.787 365.369 832.677 365.125 830.795M358.761 831.431C358.761 831.431 359.046 827.106 357.488 820.117M365.125 830.795C365.125 830.795 365.762 823.794 362.58 819.339" stroke="black" stroke-width="2.41842" stroke-linecap="round" stroke-linejoin="round"/>
<path d="M217.476 733.006C203.474 703.094 284.3 633.723 308.484 626.723C308.484 626.723 301.308 646.452 292.574 664.272C283.84 682.092 279.209 682.728 279.209 682.728L293.671 715.168C286.298 721.89 274.228 717.619 263.759 722.316C243.503 731.403 222.091 735.943 217.476 733.006Z" fill="#FFCAA4" stroke="black" stroke-width="2.41842" stroke-linecap="round" stroke-linejoin="round"/>
<path d="M278.577 696.094C284.686 696.603 283.244 701.821 281.759 704.367C276.158 708.44 269.242 709.883 266.485 710.095M278.577 696.094C279.991 693.548 277.177 689.602 271.576 691.639C265.975 693.675 262.454 693.76 261.393 693.548C259.866 693.509 255.665 683.773 253.756 678.91C249.683 682.474 251.21 692.275 252.483 696.73C252.483 696.73 247.216 707.531 231.305 711.368M278.577 696.094C276.031 700.676 268.182 702.67 264.575 703.094" stroke="black" stroke-width="2.41842" stroke-linecap="round" stroke-linejoin="round"/>
<path d="M302.121 724.094L284.938 657.27L248.025 664.907L251.843 679.544H253.753L261.511 694.819C262.572 695.031 266.093 694.946 271.694 692.909C278.397 687.8 278.397 694.588 278.397 697.346C282.852 694.819 284.938 701.801 281.58 704.983C282.089 713.129 268.512 720.064 261.511 721.549L263.936 731.731L302.121 724.094Z" fill="#E74F4F" stroke="black" stroke-width="1.90928" stroke-linecap="round" stroke-linejoin="round"/>
<circle cx="3.81856" cy="3.81856" r="3.81856" transform="matrix(-0.979988 -0.199056 -0.199056 0.979988 282.219 665.773)" fill="black"/>
<path d="M280.859 587.914V538.909C280.859 538.909 285.951 513.437 317.136 512.801C348.321 512.164 351.503 537.621 351.503 537.621C351.503 549.811 347.644 556.657 342.865 560.367C348.129 557.201 356.099 554.696 357.867 563.093C359.903 572.767 349.381 576.458 343.866 577.095C339.792 598.988 343.866 615.068 346.411 620.372C341.32 630.555 323.5 628.857 315.226 626.736V610.825C281.114 611.844 280.859 599.37 280.859 587.914Z" fill="#F5B896"/>
<path d="M280.859 538.909V587.914C280.859 599.37 281.114 611.844 315.226 610.825V626.736C323.5 628.857 341.32 630.555 346.411 620.372C343.866 615.068 339.792 598.988 343.866 577.095C349.381 576.458 359.903 572.767 357.867 563.093C355.83 553.42 345.563 558.214 340.683 561.821C346.411 558.573 351.503 551.623 351.503 537.621C351.503 537.621 348.321 512.164 317.136 512.801C285.951 513.437 280.859 538.909 280.859 538.909Z" stroke="black" stroke-width="2.41842" stroke-linejoin="round"/>
<path d="M315.863 610.822C320.322 610.619 327.648 609.293 329.624 605.623C329.707 605.442 329.787 605.266 329.865 605.094C329.797 605.275 329.716 605.452 329.624 605.623C326.533 612.362 319.83 625.104 315.863 626.096V610.822Z" fill="black"/>
<path d="M315.863 610.822C320.53 610.609 328.337 609.167 329.865 605.094C326.895 611.67 319.936 625.078 315.863 626.096V610.822Z" stroke="black" stroke-width="2.41842" stroke-linecap="round" stroke-linejoin="round"/>
<path d="M331.136 534.439C329.203 532.12 326.903 534.057 325.351 536.238C324.512 537.416 323.22 538.263 321.774 538.237C296.725 537.786 285.816 530.537 281.495 548.441C277.04 566.898 273.222 528.075 285.95 520.438C289.401 518.367 295.496 512.163 319.044 512.164C342.514 512.165 350.229 525.528 352.138 536.348C354.047 547.168 348.956 557.987 348.956 557.987L340.682 561.169C320.317 568.17 334.318 538.258 331.136 534.439Z" fill="black" stroke="black" stroke-width="2.41842" stroke-linecap="round" stroke-linejoin="round"/>
<path d="M288.518 565.845C288.848 564.461 289.65 562.918 291.801 563.117C293.805 563.301 294.86 565.015 294.675 567.019" stroke="black" stroke-width="1.90928" stroke-linecap="round" stroke-linejoin="round"/>
<path d="M310.3 566.738C310.567 565.34 311.298 563.762 313.456 563.862C315.466 563.956 316.598 565.62 316.504 567.63" stroke="black" stroke-width="1.90928" stroke-linecap="round" stroke-linejoin="round"/>
<path d="M307.043 572.034C306.018 568.672 302.462 566.777 299.1 567.801C295.737 568.826 293.842 572.382 294.867 575.744C295.474 577.736 296.969 579.213 298.786 579.873" stroke="black" stroke-width="1.90928" stroke-linecap="round" stroke-linejoin="round"/>
<path d="M311.031 553.631C311.031 550.99 318.032 550.353 319.941 555.445" stroke="black" stroke-width="1.90928" stroke-linecap="round" stroke-linejoin="round"/>
<path d="M294.484 553.633C294.484 550.992 286.847 549.719 285.574 555.447" stroke="black" stroke-width="1.90928" stroke-linecap="round" stroke-linejoin="round"/>
<path d="M309.212 597.533C317.124 595.343 320.378 584.612 321.016 579.521C314.51 585.309 299.051 591.009 287.959 585.562C289.307 595.755 301.3 599.724 309.212 597.533Z" fill="black" stroke="black" stroke-width="1.90928" stroke-linecap="round" stroke-linejoin="round"/>
<path d="M305.524 593.969C301.459 591.36 297.551 593.474 296.104 594.857C306.826 600.21 312.211 594.356 313.563 590.76C310.486 588.402 306.921 591.917 305.524 593.969Z" fill="white"/>
<circle cx="14.0014" cy="14.0014" r="12.7922" transform="matrix(-1 0 0 1 359.398 552.59)" fill="#E74F4F" stroke="black" stroke-width="2.41842"/>
<path fill-rule="evenodd" clip-rule="evenodd" d="M337.337 506.877C332.412 503.139 326.304 501.98 318.271 505.981C325.572 505.227 330.991 506.854 335.029 509.919C339.105 513.012 341.97 517.718 343.842 523.449C347.602 534.959 347.172 550.039 345.104 562.316L348.869 562.95C350.983 550.406 351.508 534.619 347.472 522.264C345.446 516.062 342.225 510.586 337.337 506.877Z" fill="white" stroke="black" stroke-width="1.27285"/>
<path d="M288.968 588.869C288.968 590.744 287.449 592.263 285.574 592.263C283.7 592.263 282.18 590.744 282.18 588.869C282.18 586.994 283.7 585.475 285.574 585.475C287.449 585.475 288.968 586.994 288.968 588.869ZM279.085 567.609C277.004 570.419 274.907 574.786 275.199 578.815C275.343 580.806 276.069 582.714 277.678 584.343C279.295 585.979 281.848 587.375 285.714 588.248L285.434 589.49C281.409 588.581 278.61 587.097 276.772 585.237C274.926 583.369 274.093 581.165 273.929 578.907C273.606 574.44 275.901 569.77 278.062 566.852L279.085 567.609Z" fill="black"/>
<path d="M299.574 560.618C299.574 560.171 299.339 559.76 298.931 559.578C297.707 559.035 294.74 557.988 290.028 557.988C285.316 557.988 282.348 559.035 281.125 559.578C280.716 559.76 280.481 560.171 280.481 560.618V568.808C280.481 571.619 282.761 573.899 285.573 573.899H295.119C295.119 573.899 295.119 571.99 296.392 570.08C297.665 568.171 299.574 567.535 299.574 567.535V560.618Z" stroke="black" stroke-width="1.90928" stroke-linecap="round" stroke-linejoin="round"/>
<path d="M323.758 560.618C323.758 560.171 323.523 559.76 323.114 559.578C321.891 559.035 318.923 557.988 314.211 557.988C309.499 557.988 306.532 559.035 305.309 559.578C304.9 559.76 304.665 560.171 304.665 560.618V568.171C304.665 568.171 305.938 568.808 307.211 570.08C308.484 571.353 307.847 573.899 307.847 573.899H318.666C321.478 573.899 323.758 571.619 323.758 568.808V560.618Z" stroke="black" stroke-width="1.90928" stroke-linecap="round" stroke-linejoin="round"/>
<path d="M339.035 558.625C335.217 560.746 326.816 564.989 323.761 564.989" stroke="black" stroke-width="1.90928" stroke-linecap="round" stroke-linejoin="round"/>
<path d="M454.501 511.927L440.882 500.59C440.602 500.356 440.467 499.992 440.529 499.635C440.591 499.278 440.84 498.982 441.183 498.858L457.822 492.876C458.166 492.754 458.55 492.823 458.83 493.057C459.11 493.291 459.244 493.655 459.182 494.012L456.165 511.332C456.102 511.689 455.852 511.984 455.509 512.107C455.165 512.229 454.781 512.161 454.501 511.927V511.927Z" fill="#BABECB"/>
<path d="M521.313 789.451L412.121 772.355H521.313V789.451Z" fill="black" stroke="black" stroke-width="0.551476"/>
<path d="M675.704 921.297C667.637 915.751 645.14 916.029 639.153 925.167C637.114 919.46 623.04 907.027 609.577 907.027C583.467 907.027 581.529 919.46 580.509 925.167C564.7 921.297 540.732 930.486 540.732 962.104C534.442 962.784 521.863 966.795 521.863 977.403V1008.04H639.153H767.081C773.382 986.862 759.623 976.947 751.956 974.636C751.956 953.714 729.48 954.306 718.241 957.217C718.871 953.436 717.863 945.244 708.788 942.723C699.714 940.202 689.673 943.773 685.787 945.874C685.787 939.992 683.77 926.842 675.704 921.297Z" fill="white" stroke="black" stroke-width="2.38043" stroke-linecap="round" stroke-linejoin="round"/>
<path d="M624.922 944.037C590.067 939.212 537.933 972.446 538.698 1007.51C614.414 1018.16 661.689 963.73 675.867 935.177C675.868 935.174 675.87 935.171 675.871 935.168C675.87 935.171 675.868 935.174 675.867 935.177C673.395 940.145 659.756 948.859 624.922 944.037Z" fill="#465173"/>
<path d="M538.698 1007.51C537.933 972.446 590.067 939.212 624.922 944.037C659.776 948.862 673.411 940.135 675.871 935.168C661.698 963.719 614.421 1018.16 538.698 1007.51Z" stroke="black" stroke-width="1.79332" stroke-linecap="round" stroke-linejoin="round"/>
<path d="M606.742 969.859C588.225 974.661 548.876 987.193 539.614 998.906" stroke="black" stroke-width="1.79332" stroke-linecap="round" stroke-linejoin="round"/>
<path d="M691.816 997.294C699.882 1003.09 695.177 1009.06 691.816 1013.05H596.658C591.616 989.858 607.581 981.75 616.193 980.595C620.227 967.235 635.519 969.776 642.661 972.717C649.971 962.886 659.781 968.621 663.772 972.717C673.603 966.415 679.422 975.343 681.103 980.595C690.429 980.595 692.131 991.728 691.816 997.294Z" fill="#BABECB" stroke="black" stroke-width="1.79332" stroke-linecap="round" stroke-linejoin="round"/>
<path d="M337.95 78.7047H14.6247C12.2984 78.7047 10.4125 80.5905 10.4125 82.9168V316.912C10.4125 319.239 12.2984 321.125 14.6246 321.125H252.747C254.551 321.125 256.268 321.899 257.463 323.251L282.914 352.053C284.841 354.235 288.348 353.85 289.756 351.303L304.649 324.372C305.757 322.368 307.866 321.125 310.156 321.125H337.95C340.277 321.125 342.163 319.239 342.163 316.912V286.009V82.9168C342.163 80.5905 340.277 78.7047 337.95 78.7047Z" fill="#465173" stroke="black" stroke-width="2.08124"/>
<mask id="mask2_2705_15281" style="mask-type:alpha" maskUnits="userSpaceOnUse" x="73" y="0" width="418" height="320">
<path d="M460.62 5.67499C460.62 2.54078 458.079 0 454.945 0H79.506C76.3718 0 73.831 2.54077 73.831 5.67498V313.75C73.831 316.884 76.3718 319.425 79.506 319.425H460.62H484.326C489.227 319.425 491.823 313.63 488.561 309.973L462.06 280.262C461.132 279.222 460.62 277.877 460.62 276.484V5.67499Z" fill="#ACC7FA"/>
</mask>
<g mask="url(#mask2_2705_15281)">
<path d="M159.484 373.198C147.292 332.503 164.564 308.764 174.723 301.982L247.111 294.715C252.826 351.397 241.396 448.919 238.856 455.314C235.681 463.308 211.552 609.373 215.997 616.64H207.742H190.598H169.643C181.073 475.785 161.177 419.222 159.484 373.198Z" fill="#F5B896" stroke="black" stroke-width="2.08124" stroke-linecap="round" stroke-linejoin="round"/>
<path d="M196.951 616.362L212.826 447.769L193.141 616.362H196.951Z" fill="black"/>
<path d="M219.175 319.871C224.255 381.64 212.826 447.769 212.826 447.769M212.826 447.769L196.951 616.362H193.141L212.826 447.769Z" stroke="black" stroke-width="2.08124" stroke-linecap="round" stroke-linejoin="round"/>
<path d="M165.002 483.693C137.571 339.383 157.383 304.238 170.717 304.704C186.973 292.399 230.829 293.983 250.725 296.314C262.408 332.671 245.857 436.382 236.12 483.693C226.469 477.541 184.687 481.13 165.002 483.693Z" fill="#E9EAEE" stroke="black" stroke-width="2.08124" stroke-linecap="round" stroke-linejoin="round"/>
<path d="M254.542 235.774C264.194 234.25 275.497 222.016 279.941 216.09L252.002 228.789L254.542 235.774Z" fill="black" stroke="black" stroke-width="2.08124" stroke-linecap="round" stroke-linejoin="round"/>
<path d="M281.211 234.505L268.773 209.706C265.454 208.065 253.393 214.915 250.867 221.205C250.867 221.205 258.705 253.461 268.773 254.824C278.841 256.187 332.697 255.717 361.622 239.782C364.227 238.614 365.256 235.963 365.957 233.058C367.965 231.621 367.759 229.089 366.678 227.903C368.082 225.24 366.611 222.812 365.541 221.189C363.152 217.565 356.099 218.677 351.384 220.14C347.927 207.53 335 207.401 337.935 210.973C343.981 218.332 342.509 224.138 342.509 224.138C342.509 224.138 337.089 229.072 316.77 233.058C296.451 237.045 281.211 234.505 281.211 234.505Z" fill="#BF7657" stroke="black" stroke-width="2.08124" stroke-linecap="round" stroke-linejoin="round"/>
<path d="M298.865 271.696L295.454 180.592C295.387 178.814 296.677 177.274 298.439 177.027L350.844 169.691C352.852 169.41 354.672 170.903 354.788 172.927L359.318 251.775L359.989 263.453C360.092 265.248 358.806 266.824 357.027 267.084L302.833 274.998C300.791 275.296 298.942 273.757 298.865 271.696Z" fill="#E74F4F" stroke="black" stroke-width="2.08124" stroke-linecap="round" stroke-linejoin="round"/>
<circle cx="307.07" cy="190.647" r="3.80988" transform="rotate(-11.4818 307.07 190.647)" fill="black"/>
<path d="M207.095 142.428C236.765 150.683 258.354 198.307 279.309 215.451C279.309 215.451 258.85 223.071 251.865 230.056C260.113 258.798 263.8 285.902 264.243 300.538C244.559 293.554 209 297.364 195.665 303.713C184.998 308.793 159.895 304.983 148.677 302.443C144.693 287.204 151.678 249.74 164.551 226.246C156.932 221.801 137.882 218.626 125.183 215.451C133.31 185.48 163.281 149.201 177.251 134.809L207.095 142.428Z" fill="#BABECB"/>
<path d="M164.551 226.246C156.932 221.801 137.882 218.626 125.183 215.451C133.31 185.48 163.281 149.201 177.251 134.809L207.095 142.428C236.765 150.683 258.354 198.307 279.309 215.451C279.309 215.451 258.85 223.071 251.865 230.056M164.551 226.246C151.678 249.74 144.693 287.204 148.677 302.443C159.895 304.983 184.998 308.793 195.665 303.713C209 297.364 244.559 293.554 264.243 300.538C263.397 272.599 250.734 199.235 217.081 155.763M164.551 226.246L177.251 232.596C174.076 217.991 179.617 179.892 183.427 158.303" stroke="black" stroke-width="2.08124" stroke-linecap="round" stroke-linejoin="round"/>
<path d="M125.203 215.453C138.185 223.713 167.154 238.896 176.637 233.232C160.551 226.743 127.235 214.037 125.203 215.453Z" fill="black" stroke="black" stroke-width="2.08124" stroke-linecap="round" stroke-linejoin="round"/>
<path d="M151.431 347.83C148.188 337.895 155.744 273.622 168.672 228.454C155.679 221.167 142.345 219.564 136.767 219.564C128.786 260.352 135.189 307.628 134.238 347.83C131.164 357.82 129.947 376.154 134.238 380.214C136.923 382.754 137.558 380.214 137.558 378.309C138.348 380.827 138.134 382.923 140.386 382.923C142.637 382.923 143.399 378.914 143.46 377.604C143.46 381.446 144.871 382.923 147.302 382.923C151.527 382.754 148.839 372.225 151.431 362.827C152.872 365.591 156.926 370.249 161.613 366.779C162.957 365.784 152.546 355.729 151.431 347.83Z" fill="#BF7657"/>
<path d="M143.46 377.604C143.46 381.446 144.871 382.923 147.302 382.923C151.527 382.754 148.839 372.225 151.431 362.827C152.872 365.591 156.926 370.249 161.613 366.779C162.957 365.784 152.546 355.729 151.431 347.83C148.188 337.895 155.744 273.622 168.672 228.454C155.679 221.167 142.345 219.564 136.767 219.564C128.786 260.352 135.189 307.628 134.238 347.83C131.164 357.82 129.947 376.154 134.238 380.214C136.923 382.754 137.558 380.214 137.558 378.309M143.46 377.604C143.399 378.914 142.637 382.923 140.386 382.923C138.134 382.923 138.348 380.827 137.558 378.309M143.46 377.604C143.46 377.604 142.637 373.864 143.46 362.827M137.558 378.309C137.558 378.309 135.653 368.149 137.558 362.827" stroke="black" stroke-width="2.08124" stroke-linecap="round" stroke-linejoin="round"/>
<path d="M171.556 230.055L155.047 303.712C155.047 298.172 163.937 252.299 168.381 230.055H171.556Z" fill="black" stroke="black" stroke-width="2.08124" stroke-linecap="round" stroke-linejoin="round"/>
<path d="M350.157 223.953C351.109 226.564 357.484 225.226 361.767 223.664C366.05 222.102 366.369 220.22 365.668 218.298C364.967 216.375 363.511 215.14 359.228 216.702C354.945 218.263 349.205 221.342 350.157 223.953Z" fill="#BF7657" stroke="black" stroke-width="2.08124" stroke-linecap="round" stroke-linejoin="round"/>
<path d="M352.696 230.305C353.648 232.916 360.023 231.577 364.306 230.015C368.589 228.454 368.908 226.572 368.207 224.649C367.506 222.727 366.05 221.491 361.767 223.053C357.484 224.615 351.744 227.694 352.696 230.305Z" fill="#BF7657" stroke="black" stroke-width="2.08124" stroke-linecap="round" stroke-linejoin="round"/>
<path d="M353.966 236.652C354.918 239.263 361.292 237.925 365.576 236.363C369.859 234.801 370.177 232.919 369.476 230.997C368.775 229.074 367.32 227.839 363.037 229.401C358.754 230.963 353.014 234.042 353.966 236.652Z" fill="#BF7657" stroke="black" stroke-width="2.08124" stroke-linecap="round" stroke-linejoin="round"/>
<path d="M243.566 103.236V54.342C243.566 54.342 238.487 28.9279 207.373 28.293C176.258 27.658 173.084 53.0572 173.084 53.0572C173.084 65.2193 176.934 72.0491 181.702 75.7509C176.45 72.5921 168.498 70.0932 166.734 78.4713C164.702 88.123 175.2 91.8059 180.703 92.4409C184.767 114.284 180.703 130.328 178.163 135.62C183.243 145.779 201.023 144.086 209.277 141.969V126.095C243.312 127.111 243.566 114.665 243.566 103.236Z" fill="#F5B896"/>
<path d="M243.566 54.342V103.236C243.566 114.665 243.312 127.111 209.277 126.095V141.969C201.023 144.086 183.243 145.779 178.163 135.62C180.703 130.328 184.767 114.284 180.703 92.4409C175.2 91.8059 164.702 88.123 166.734 78.4713C168.766 68.8196 179.01 73.6031 183.878 77.2013C178.163 73.9613 173.084 67.0268 173.084 53.0572C173.084 53.0572 176.258 27.658 207.373 28.293C238.487 28.9279 243.566 54.342 243.566 54.342Z" stroke="black" stroke-width="2.08124" stroke-linejoin="round"/>
<path d="M208.641 126.094C204.192 125.892 196.883 124.569 194.911 120.907C194.829 120.726 194.748 120.55 194.671 120.379C194.739 120.56 194.819 120.736 194.911 120.907C197.995 127.631 204.683 140.344 208.641 141.333V126.094Z" fill="black"/>
<path d="M208.641 126.094C203.984 125.882 196.195 124.443 194.671 120.379C197.634 126.94 204.577 140.317 208.641 141.333V126.094Z" stroke="black" stroke-width="2.08124" stroke-linecap="round" stroke-linejoin="round"/>
<path d="M243.305 103.71V54.8164H190.601C190.601 68.786 184.886 74.7125 183.617 77.6757C178.748 74.0775 168.504 69.294 166.472 78.9457C164.44 88.5974 174.938 92.2803 180.442 92.9152C184.505 114.759 180.442 130.802 177.902 136.094C182.982 146.254 200.761 144.56 209.016 142.444V126.569C243.051 127.585 243.305 115.14 243.305 103.71Z" fill="#BF7657" stroke="black" stroke-width="2.08124" stroke-linecap="round" stroke-linejoin="round"/>
<path d="M208.379 126.57C203.93 126.368 196.621 125.045 194.65 121.383C194.567 121.203 194.487 121.027 194.409 120.855C194.477 121.037 194.558 121.212 194.65 121.383C197.733 128.107 204.421 140.82 208.379 141.81V126.57Z" fill="black"/>
<path d="M208.379 126.57C203.722 126.359 195.933 124.919 194.409 120.855C197.373 127.417 204.315 140.794 208.379 141.81V126.57Z" stroke="black" stroke-width="2.08124" stroke-linecap="round" stroke-linejoin="round"/>
<rect x="185.613" y="30.0391" width="53.3384" height="27.9391" fill="white" stroke="black" stroke-width="2.08124" stroke-linecap="round" stroke-linejoin="round"/>
<path d="M155.137 56.0732C156.661 29.15 191.754 16.0694 209.11 12.8945C221.81 17.5511 248.352 31.8169 252.924 51.6283C257.496 71.4397 249.02 78.9325 243.305 80.8374C241.189 65.8096 220.947 38.7931 216.73 40.1987C203.395 44.6436 188.156 71.7361 179.901 86.5523V96.077C171.011 93.9604 153.613 82.9964 155.137 56.0732Z" fill="black"/>
<path d="M216.73 40.1987C203.395 44.6436 188.156 71.7361 179.901 86.5523V96.077C171.011 93.9604 153.613 82.9964 155.137 56.0732C156.661 29.15 191.754 16.0694 209.11 12.8945C221.81 17.5511 248.352 31.8169 252.924 51.6283C257.496 71.4397 249.02 78.9325 243.305 80.8374C241.189 65.8096 220.947 38.7931 216.73 40.1987ZM216.73 40.1987C216.73 40.1987 223.715 37.0238 225.62 37.6588" stroke="black" stroke-width="2.08124" stroke-linecap="round" stroke-linejoin="round"/>
<path d="M200.126 29.4023C192.506 33.2122 176.758 45.1499 174.727 62.4213" stroke="white" stroke-width="2.08124" stroke-linecap="round" stroke-linejoin="round"/>
<path d="M214.189 89.7672C215.211 86.4125 218.759 84.5217 222.113 85.5438C225.468 86.5659 227.359 90.114 226.337 93.4686C225.731 95.4559 224.239 96.9294 222.426 97.5881" stroke="black" stroke-width="2.08124" stroke-linecap="round" stroke-linejoin="round"/>
<circle cx="1.90494" cy="1.90494" r="1.90494" transform="matrix(-1 0 0 1 211.559 84.0273)" fill="black"/>
<circle cx="1.90494" cy="1.90494" r="1.90494" transform="matrix(-1 0 0 1 231.879 82.7422)" fill="black"/>
<path d="M210.285 74.5012C207.11 73.2314 201.395 75.2632 201.395 80.851" stroke="black" stroke-width="2.08124" stroke-linecap="round" stroke-linejoin="round"/>
<path d="M228.699 74.0058C230.604 73.3709 234.668 74.7678 235.684 77.8157" stroke="black" stroke-width="2.08124" stroke-linecap="round" stroke-linejoin="round"/>
<path d="M212.824 106.238C213.883 107.72 215.999 110.683 220.444 110.683C224 110.683 226.159 107.72 226.794 106.238" stroke="black" stroke-width="2.08124" stroke-linecap="round" stroke-linejoin="round"/>
<path d="M199.547 144.198C185.831 145.214 177.322 140.6 176.687 134.674C179.227 132.134 174.782 130.864 173.512 134.675C171.185 141.658 158.908 144.833 173.513 153.722C188.117 162.612 188.117 163.459 197.642 165.787C203.229 165.279 194.467 150.547 199.547 144.198Z" fill="white" stroke="black" stroke-width="2.08124" stroke-linecap="round" stroke-linejoin="round"/>
<path d="M216.636 264.348C222.351 231.329 209.016 179.049 207.746 165.926C214.35 169.99 235.05 225.614 231.24 264.348C229.124 270.909 222.351 292.183 222.351 286.572C222.351 273.872 216.189 266.927 216.636 264.348Z" fill="black" stroke="black" stroke-width="2.08124" stroke-linecap="round" stroke-linejoin="round"/>
<path d="M207.747 165.289L200.128 162.75L198.223 149.415L200.128 146.875L210.287 158.305L207.747 165.289Z" fill="black" stroke="black" stroke-width="2.08124" stroke-linecap="round" stroke-linejoin="round"/>
<path d="M210.344 160.711C207.804 153.726 202.301 146.953 198.914 143.566C207.55 143.566 208.015 141.873 207.804 137.852C211.614 137.852 213.773 142.423 214.789 145.471C215.805 148.519 219.233 151.821 222.408 151.821C220.884 153.853 215.635 157.113 210.344 160.711Z" fill="white" stroke="black" stroke-width="2.08124" stroke-linecap="round" stroke-linejoin="round"/>
<path d="M222.036 131.496C240.283 130.589 243.938 115.762 240.918 94.8214C240.166 101.079 235.673 103.574 232.664 108.156C231.887 109.339 232.309 113.505 231.394 114.506C229.489 119.586 224.79 120.933 219.535 121.128C214.586 121.312 211.709 120.577 209.169 117.046C206.629 113.514 207.715 110.062 205.36 108.791C192.086 101.627 180.826 93.8776 178.082 91.6328C178.082 99.2526 180.595 133.555 222.036 131.496Z" fill="black" stroke="black" stroke-width="2.08124" stroke-linecap="round" stroke-linejoin="round"/>
<path d="M214.254 96.7266L220.604 97.3615C220.604 97.3615 211.714 101.806 209.442 104.346C207.169 106.886 207.27 112.601 207.27 112.601C207.27 112.601 206.634 104.981 208.539 101.806C210.444 98.6315 214.254 96.7266 214.254 96.7266Z" fill="black" stroke="black" stroke-width="2.08124" stroke-linecap="round" stroke-linejoin="round"/>
<path d="M227.487 96.7266L221.137 97.3615C221.137 97.3615 228.491 101.171 230.763 103.711C233.036 106.251 232.033 112.601 232.033 112.601C232.033 112.601 235.106 104.981 233.201 101.806C231.297 98.6315 227.487 96.7266 227.487 96.7266Z" fill="black" stroke="black" stroke-width="2.08124" stroke-linecap="round" stroke-linejoin="round"/>
<path d="M218.695 125.301L219.965 126.571" stroke="white" stroke-width="2.08124" stroke-linecap="round" stroke-linejoin="round"/>
<path d="M209.207 125.035L209.14 126.83" stroke="white" stroke-width="2.08124" stroke-linecap="round" stroke-linejoin="round"/>
<path d="M204.391 125.301L204.323 127.096" stroke="white" stroke-width="2.08124" stroke-linecap="round" stroke-linejoin="round"/>
<path d="M225.047 122.758L223.777 124.028" stroke="white" stroke-width="2.08124" stroke-linecap="round" stroke-linejoin="round"/>
<path d="M197.434 121.691L198.572 123.081" stroke="white" stroke-width="2.08124" stroke-linecap="round" stroke-linejoin="round"/>
<path d="M229.832 122.566L229.152 124.229" stroke="white" stroke-width="2.08124" stroke-linecap="round" stroke-linejoin="round"/>
<path d="M185.652 94.582L186.33 96.2453" stroke="black" stroke-width="2.08124" stroke-linecap="round" stroke-linejoin="round"/>
<path d="M196.129 100.027L194.887 101.325" stroke="black" stroke-width="2.08124" stroke-linecap="round" stroke-linejoin="round"/>
<path d="M203.098 103.887L203.829 105.527" stroke="black" stroke-width="2.08124" stroke-linecap="round" stroke-linejoin="round"/>
<path d="M216.758 117.695L217.298 119.408" stroke="black" stroke-width="2.08124" stroke-linecap="round" stroke-linejoin="round"/>
<path d="M199.652 102.984L199.421 104.765" stroke="black" stroke-width="2.08124" stroke-linecap="round" stroke-linejoin="round"/>
<path d="M213.434 117.68L213.001 119.423" stroke="black" stroke-width="2.08124" stroke-linecap="round" stroke-linejoin="round"/>
<path d="M190.23 97.8398L190.117 99.6323" stroke="black" stroke-width="2.08124" stroke-linecap="round" stroke-linejoin="round"/>
<path d="M194.359 97.5039L193.595 99.1293" stroke="black" stroke-width="2.08124" stroke-linecap="round" stroke-linejoin="round"/>
<path d="M235.527 99.8984L236.431 101.45" stroke="black" stroke-width="2.08124" stroke-linecap="round" stroke-linejoin="round"/>
<path d="M228.887 111.723L230.452 112.603" stroke="black" stroke-width="2.08124" stroke-linecap="round" stroke-linejoin="round"/>
<path d="M223.34 117.438L223.117 119.22" stroke="black" stroke-width="2.08124" stroke-linecap="round" stroke-linejoin="round"/>
<path d="M226.375 115.574L227.114 117.211" stroke="black" stroke-width="2.08124" stroke-linecap="round" stroke-linejoin="round"/>
<path d="M236.477 97.5234L237.899 98.6194" stroke="black" stroke-width="2.08124" stroke-linecap="round" stroke-linejoin="round"/>
</g>
<path d="M429.846 708.02C524.176 678.856 583.779 587.092 584.936 484.225" stroke="#BABECB" stroke-width="3.75858" stroke-linecap="round"/>
<path d="M467.608 710.689C517.723 693.462 562.337 622.732 580.675 553.454" stroke="#BABECB" stroke-width="0.891187" stroke-linecap="round"/>
<path d="M485.945 623.167L494.881 613.387L507.923 616.221L512.031 628.836L503.1 638.616L490.057 635.776L485.945 623.167Z" fill="#E74F4F"/>
<path d="M580.645 616.242L565.176 603.364C564.857 603.098 564.704 602.685 564.774 602.279C564.845 601.873 565.128 601.537 565.517 601.396L584.418 594.601C584.808 594.462 585.244 594.54 585.562 594.807C585.881 595.073 586.033 595.486 585.962 595.892L582.536 615.565C582.464 615.971 582.18 616.306 581.79 616.446C581.4 616.585 580.964 616.507 580.645 616.242V616.242Z" fill="#BABECB"/>
<path d="M132.905 253.336C71.6626 276.007 32.967 347.343 32.216 427.311" stroke="#BABECB" stroke-width="3.75858" stroke-linecap="round"/>
<path d="M130.527 246.183C84.4386 249.683 43.3066 292.485 31.4011 346.341" stroke="#BABECB" stroke-width="1.25286" stroke-linecap="round"/>
<circle cx="570.979" cy="390.452" r="163.003" fill="#E9EAEE" stroke="black" stroke-width="2.04047"/>
<mask id="mask3_2705_15281" style="mask-type:alpha" maskUnits="userSpaceOnUse" x="305" y="167" width="486" height="414">
<path d="M575.448 552.442C535.908 551.804 512.312 542.876 504.66 538.412L497.007 560.094L329.922 580.502L305.051 305.003L486.166 167.254L791 327.324L690.239 565.834L640.496 537.136C614.987 549.381 586.501 552.442 575.448 552.442Z" fill="#D9D9D9"/>
</mask>
<g mask="url(#mask3_2705_15281)">
<path d="M613.613 385.504L583.64 393.157C571.34 397.799 531.632 419.95 518.768 462.05C511.622 485.436 526.244 512.773 526.244 551.951C546.014 544.936 569.149 553.864 593.843 558.966C605.465 561.367 631.044 556.415 642.311 553.864C630.066 547.232 626.368 503.696 626.368 477.337C634.02 472.873 653.152 469.684 665.907 466.495C657.744 436.395 627.643 399.959 613.613 385.504Z" fill="#BABECB"/>
<path d="M626.368 477.337C634.02 472.873 653.152 469.684 665.907 466.495C657.744 436.395 627.643 399.959 613.613 385.504L583.64 393.157C571.34 397.799 531.632 419.95 518.768 462.05C511.622 485.436 526.244 512.773 526.244 551.951C546.014 544.936 569.149 553.864 593.843 558.966C605.465 561.367 631.044 556.415 642.311 553.864C630.066 547.232 626.368 503.696 626.368 477.337ZM626.368 477.337L613.613 483.714C613.613 466.495 613.613 439.091 611.062 420.579" stroke="black" stroke-width="2.42337" stroke-linecap="round" stroke-linejoin="round"/>
<path d="M567.234 416.773C545.551 442.283 527.093 531.334 525.605 551.953" stroke="black" stroke-width="2.42337" stroke-linecap="round" stroke-linejoin="round"/>
<path d="M666.544 467.243C653.18 475.539 632.106 493.903 614.25 485.019C630.81 478.501 664.452 465.821 666.544 467.243Z" fill="black" stroke="black" stroke-width="2.42337" stroke-linecap="round" stroke-linejoin="round"/>
<path d="M491.981 475.41L477.951 411.67L349.944 356.188L374.816 475.41L506.011 537.302L609.961 521.964L580.802 509.291C580.802 509.291 580.625 514.311 576.161 513.036C574.638 512.6 573.116 511.091 571.77 509.291C571.77 509.291 570.422 513.036 564.045 511.76C559.178 510.787 559.139 507.956 559.394 506.67C559.546 506.306 559.58 506.021 559.58 506.021C559.58 506.021 559.473 506.271 559.394 506.67C558.986 507.646 557.732 509.186 554.017 507.329C551.2 505.92 553.419 503.788 555.293 501.59C556.812 499.807 557.843 497.763 557.843 497.763L511.289 475.41H491.981Z" fill="#E74F4F"/>
<path d="M491.981 475.41L477.951 411.67L349.944 356.188L374.816 475.41L506.011 537.302L609.961 521.964L580.802 509.291C580.802 509.291 580.625 514.311 576.161 513.036C574.638 512.6 573.116 511.091 571.77 509.291C571.77 509.291 570.422 513.036 564.045 511.76C557.667 510.485 559.58 506.021 559.58 506.021C559.58 506.021 559.119 509.88 554.017 507.329C551.2 505.92 553.419 503.788 555.293 501.59M491.981 475.41H511.289L557.843 497.763M491.981 475.41L501.547 525.79M557.843 497.763C557.843 497.763 556.812 499.807 555.293 501.59M557.843 497.763L555.293 501.59" stroke="black" stroke-width="2.42337" stroke-linecap="round" stroke-linejoin="round"/>
<path d="M424.157 435.902C427.346 439.091 431.81 446.999 424.157 453.121" stroke="black" stroke-width="2.42337" stroke-linecap="round" stroke-linejoin="round"/>
<path d="M413.955 433.992C411.068 437.063 407.025 444.678 413.955 450.573" stroke="black" stroke-width="2.42337" stroke-linecap="round" stroke-linejoin="round"/>
<path d="M499.455 480.028C504.489 476.534 505.361 460.685 512.648 457.63C540.977 451.722 537.688 486.092 541.714 489.796L542.362 490.111C542.125 490.085 541.911 489.977 541.714 489.796L521.64 480.028C520.65 484.676 518.87 485.807 517.876 486.183C515.162 487.21 513.1 484.572 512.678 483.62C513.077 484.796 509.552 486.604 507.419 485.743C505.24 484.864 505.361 483.568 505.361 481.81C501.439 485.327 497.661 481.274 499.455 480.028Z" fill="#E29B7B"/>
<path d="M505.361 481.81C501.439 485.327 497.661 481.274 499.455 480.028C504.489 476.534 505.361 460.685 512.648 457.63C542.362 451.434 537.29 489.548 542.362 490.111L521.64 480.028M505.361 481.81C505.361 483.568 505.24 484.864 507.419 485.743C509.597 486.623 513.228 484.717 512.648 483.545M505.361 481.81C505.361 481.81 510.033 478.732 510.033 471.698M512.648 483.545C512.987 484.424 515.088 487.238 517.876 486.183C519.304 485.643 522.354 483.545 522.354 471.698C522.913 470.971 537.26 486.183 528.969 469.066M512.648 483.545C512.648 483.545 516.689 480.028 515.818 471.698" stroke="black" stroke-width="2.42337" stroke-linecap="round" stroke-linejoin="round"/>
<path d="M553.203 485.007C551.405 480.513 563.868 472.491 570.883 471.614C589.668 469.266 622.132 488.712 629.554 489.528C632.211 489.821 632.067 487.15 627.641 479.249C638.354 474.147 656.338 467.542 662.078 467.117C667.18 474.132 687.763 529.01 672.458 537.3C649.5 546.866 589.553 486.268 585.089 492.022C585.089 509.207 580.625 512.25 578.535 513.034C574.563 514.523 571.545 510.696 570.928 509.315C571.512 511.022 566.352 513.645 563.23 512.396C560.041 511.121 560.218 509.241 560.218 506.69C554.478 511.792 548.948 505.913 551.575 504.106C558.942 499.037 560.041 485.63 563.23 481.818C560.029 485.645 555.754 491.384 553.203 485.007Z" fill="#E29B7B"/>
<path d="M560.218 506.69C554.478 511.792 548.948 505.913 551.575 504.106C558.942 499.037 560.041 485.63 563.23 481.818C560.029 485.645 555.754 491.384 553.203 485.007C551.405 480.513 563.868 472.491 570.883 471.614C589.668 469.266 622.132 488.712 629.554 489.528M560.218 506.69C560.218 509.241 560.041 511.121 563.23 512.396C566.419 513.672 571.733 510.908 570.883 509.207M560.218 506.69C560.218 506.69 567.056 502.225 567.056 492.022M570.883 509.207C571.38 510.483 574.454 514.564 578.535 513.034C580.625 512.25 585.089 509.207 585.089 492.022C589.553 486.268 649.5 546.866 672.458 537.3C687.763 529.01 667.18 474.132 662.078 467.117C656.338 467.542 638.354 474.147 627.641 479.249C632.067 487.15 632.211 489.821 629.554 489.528M570.883 509.207C570.883 509.207 576.799 504.106 575.523 492.022M662.078 504.106L629.554 489.528" stroke="black" stroke-width="2.42337" stroke-linecap="round" stroke-linejoin="round"/>
<path d="M545.371 355.281V306.176H605.318C605.318 320.206 604.042 326.158 605.318 329.134C610.207 325.52 620.495 320.716 622.536 330.409C624.577 340.103 618.036 345.733 612.509 346.371C608.427 368.309 608.506 382.491 611.057 387.805C605.955 398.009 588.099 396.308 579.808 394.182V378.239C545.626 379.259 545.371 366.76 545.371 355.281Z" fill="#E29B7B" stroke="black" stroke-width="2.42337" stroke-linecap="round" stroke-linejoin="round"/>
<path d="M580.445 378.24C584.914 378.036 592.254 376.708 594.234 373.03C594.317 372.849 594.398 372.672 594.475 372.5C594.407 372.682 594.326 372.859 594.234 373.03C591.137 379.783 584.42 392.551 580.445 393.545V378.24Z" fill="black"/>
<path d="M580.445 378.24C585.122 378.027 592.945 376.581 594.475 372.5C591.499 379.09 584.527 392.525 580.445 393.545V378.24Z" stroke="black" stroke-width="2.52296" stroke-linecap="round" stroke-linejoin="round"/>
<path d="M601.67 374.43C625.265 376.334 638.233 363.164 647.586 355.936C634.194 333.616 644.78 267.42 587.64 273.032C575.098 269.843 547.59 272.266 537.897 307.469C540.512 314.308 550.186 318.267 561.493 320.463C562.335 320.626 567.65 297.121 568.508 297.265C567.87 315.122 568.928 321.374 568.508 321.499C584.713 323.858 600.608 322.961 605.496 322.146V327.886C610.385 325.122 620.802 321.891 623.352 331.074C625.903 340.258 615.912 345.955 610.598 347.655C610.598 364.227 606.134 371.242 601.67 374.43Z" fill="black" stroke="black" stroke-width="2.52296" stroke-linecap="round" stroke-linejoin="round"/>
<path d="M573.609 279.406C565.531 281.107 548.738 288.462 546.187 304.278" stroke="white" stroke-width="2.42337" stroke-linecap="round" stroke-linejoin="round"/>
<path d="M555.52 333.446C555.851 332.059 556.655 330.513 558.81 330.711C560.819 330.896 561.875 332.614 561.69 334.622" stroke="black" stroke-width="1.91318" stroke-linecap="round" stroke-linejoin="round"/>
<path d="M577.346 334.342C577.613 332.941 578.346 331.36 580.508 331.461C582.522 331.554 583.656 333.222 583.562 335.237" stroke="black" stroke-width="1.91318" stroke-linecap="round" stroke-linejoin="round"/>
<path d="M574.083 339.645C573.056 336.275 569.493 334.376 566.124 335.403C562.755 336.43 560.856 339.993 561.882 343.362C562.49 345.358 563.989 346.838 565.809 347.499" stroke="black" stroke-width="1.91318" stroke-linecap="round" stroke-linejoin="round"/>
<path d="M578.078 321.205C578.078 318.559 585.093 317.921 587.006 323.023" stroke="black" stroke-width="1.91318" stroke-linecap="round" stroke-linejoin="round"/>
<path d="M561.5 321.208C561.5 318.562 553.847 317.286 552.572 323.026" stroke="black" stroke-width="1.91318" stroke-linecap="round" stroke-linejoin="round"/>
<path d="M576.256 365.199C584.185 363.004 587.445 352.252 588.085 347.15C581.565 352.95 566.074 358.661 554.96 353.203C556.311 363.417 568.328 367.394 576.256 365.199Z" fill="black" stroke="black" stroke-width="1.91318" stroke-linecap="round" stroke-linejoin="round"/>
<path d="M572.562 361.625C568.489 359.01 564.573 361.129 563.123 362.515C573.867 367.879 579.263 362.013 580.618 358.41C577.534 356.046 573.962 359.568 572.562 361.625Z" fill="white"/>
<path d="M607.529 411.033C622.957 407.554 617.095 394.026 611.993 385.523C604.34 395.217 586.697 393.814 578.831 391.901C575.005 398.916 569.648 409.502 578.831 411.033C588.015 412.563 591.685 399.553 593.386 395.089C593.386 400.829 593.386 414.221 607.529 411.033Z" fill="white" stroke="black" stroke-width="2.42337" stroke-linecap="round" stroke-linejoin="round"/>
<path d="M580.628 442.918C586.367 416.134 590.194 406.568 593.383 398.277" stroke="black" stroke-width="2.42337" stroke-linecap="round" stroke-linejoin="round"/>
<circle cx="1.91318" cy="1.91318" r="1.91318" transform="matrix(-0.952029 -0.306008 -0.306008 0.952029 581.992 420.973)" fill="black"/>
<circle cx="1.91318" cy="1.91318" r="1.91318" transform="matrix(-0.952029 -0.306008 -0.306008 0.952029 577.699 434.328)" fill="black"/>
</g>
<path d="M61.2427 352.984L75.0965 347.456C75.382 347.342 75.5851 347.084 75.6294 346.78C75.6737 346.476 75.5525 346.171 75.3114 345.98L63.596 336.744C63.3539 336.555 63.0291 336.508 62.7438 336.623C62.4585 336.738 62.2558 336.995 62.2119 337.3L60.07 352.062C60.0267 352.366 60.1489 352.671 60.3907 352.861C60.6324 353.051 60.9571 353.098 61.2427 352.984V352.984Z" fill="#E74F4F"/>
</svg>
